<?xml version="1.0" encoding="UTF-8"?><svg id="a" xmlns="http://www.w3.org/2000/svg" viewBox="0 0 300 300"><defs><style>.b{fill:#ffc950;}.c{fill:#171714;}.d{fill:none;stroke:#ffc950;stroke-miterlimit:10;stroke-width:4px;}</style></defs><path class="c" d="M266.5,200.6l-67.9,67.9c-27.8,27.8-73.4,27.8-101.2,0L29.5,200.6C1.7,172.8,1.7,127.2,29.5,99.3L97.4,31.4c27.8-27.8,73.4-27.8,101.2,0l67.9,67.9c27.8,27.9,27.8,73.5,0,101.3"/><path class="d" d="M266.5,200.6l-67.9,67.9c-27.8,27.8-73.4,27.8-101.2,0L29.5,200.6C1.7,172.8,1.7,127.2,29.5,99.3L97.4,31.4c27.8-27.8,73.4-27.8,101.2,0l67.9,67.9c27.8,27.9,27.8,73.5,0,101.3"/><path class="b" d="M228.7,128.9c5.9,5.8,9.2,13.6,9.3,21.9,.1,8.3-3.1,16.1-9,22-5.8,5.9-13.6,9.2-21.9,9.2-1.7,0-3.5-.1-5.6-.5-.6-.1-1.2-.2-1.8-.4-1.3-.3-2.5-.7-3.6-1.1-.6-.2-1.2-.4-1.8-.7-1.1-.5-2.2-1.1-3.5-1.9-.3-.1-.5-.3-.7-.4-.1-.1-.3-.1-.4-.2l-5.3-4.5c-.6-.6-1.2-1.4-1.8-2.2l-.2-.3c-.1-.2-.4-.4-.6-.7l-.2-.2-.2-.3-.2-.2-1.1-1.1c-8.5-8.4-20.4-13-32.8-12.8-12.3,.3-24,5.4-32,14.1l-.3,.4-.2,.3c-.2,.3-.4,.5-.6,.8-.3,.3-.5,.6-.8,.9l-.4,.6c-.4,.5-.7,.9-1.1,1.4l-5.3,4.6c-.1,.1-.3,.2-.5,.3l-.4,.2c-1.2,.7-2.3,1.4-3.6,2-.7,.3-1.2,.5-1.8,.7-1.3,.5-2.4,.9-3.7,1.2-.6,.1-1.1,.3-1.7,.4-2.2,.4-4,.6-5.6,.6-8.3,.1-16.1-3.1-22-9-5.9-5.8-9.2-13.6-9.3-21.9-.1-17.1,13.7-31.2,30.9-31.3,1.7,0,3.5,.2,5.6,.5,.6,.1,1.2,.2,1.7,.4,1.3,.3,2.5,.7,3.6,1.1,.6,.2,1.3,.5,1.8,.7,1.2,.5,2.3,1.1,3.5,1.9l.7,.4c.2,.1,.3,.2,.5,.2l5.3,4.6c.6,.6,1.1,1.3,1.7,2l.4,.5c.1,.2,.3,.4,.6,.7l.2,.2,.2,.3,.2,.2,1.1,1.1c8.5,8.4,20.4,13,32.8,12.8,12.3-.3,24-5.4,32.1-14.1l.2-.3,.2-.3c.2-.3,.4-.5,.6-.8,.3-.3,.5-.6,.8-.9,.2-.2,.4-.5,.7-.9s.6-.7,.9-1.1l.1-.1,5-4.4c.1-.1,.8-.5,1-.6,1.2-.8,2.4-1.4,3.5-1.9,.6-.3,1.2-.5,1.8-.7,1.2-.5,2.4-.9,3.7-1.2,.5-.1,1.2-.3,1.8-.4,2-.4,3.8-.6,5.5-.6,8.2-.2,16.1,3,22,8.8h0Z"/><path class="b" d="M148,127.8c-8.3,0-16.1-3.2-22-9.1-5.9-5.9-9.1-13.7-9.1-22s3.2-16.1,9.1-22c5.9-5.9,13.7-9.1,22-9.1s16.1,3.2,22,9.1,9.1,13.7,9.1,22-3.2,16.1-9.1,22c-5.9,5.9-13.7,9.1-22,9.1"/><path class="b" d="M148,234.3c-8.3,0-16.1-3.2-22-9.1-5.9-5.9-9.1-13.7-9.1-22s3.2-16.1,9.1-22c5.9-5.9,13.7-9.1,22-9.1s16.1,3.2,22,9.1c5.9,5.9,9.1,13.7,9.1,22s-3.2,16.1-9.1,22c-5.9,5.9-13.7,9.1-22,9.1"/></svg>